<svg id="Capa_1" data-name="Capa 1" xmlns="http://www.w3.org/2000/svg" viewBox="0 0 713.51 92.16"><path d="M0,1.68H29C45.48,1.68,51.6,4.2,56.4,8.16c7,5.76,10.44,14.52,10.44,23.52S63.12,50.16,57.48,55c-6.12,5.16-12.12,7.68-25.92,7.68H21.72V90.48H0Zm21.72,41H31c4.32,0,14.16,0,14.16-10.68,0-10.44-10.08-10.44-15-10.44h-8.4Z"/><path d="M119.28,0c27.36,0,46.91,21.36,46.91,46.08s-19.43,46.08-47,46.08c-28,0-46.68-22.2-46.68-45A50.16,50.16,0,0,1,76,28.2C80.64,16.68,94.44,0,119.28,0Zm.36,72.24c16.08,0,23.88-14.64,23.88-26s-7.8-26.28-24.12-26.28c-15.72,0-24.24,13.44-24.24,25.92C95.16,59.52,104.4,72.24,119.64,72.24Z"/><path d="M178.44,1.68h28.08c15.6,0,21.6,1.92,27.36,6.36,7.32,5.76,10.92,15.12,10.92,24.24,0,10.2-5.28,25.2-22.08,28l24.11,30.24H220.92L200.4,61.8h-.24V90.48H178.44Zm21.72,44.64h8c13.32,0,14.88-8.4,14.88-12.72,0-8-5.88-12-14.64-12h-8.28Z"/><path d="M293.88,1.68h29c16.44,0,22.56,2.52,27.36,6.48,7,5.76,10.43,14.52,10.43,23.52S357,50.16,351.36,55c-6.12,5.16-12.12,7.68-25.92,7.68H315.6V90.48H293.88Zm21.72,41h9.24c4.32,0,14.16,0,14.16-10.68,0-10.44-10.08-10.44-15-10.44h-8.4Z"/><path d="M382.08,77.64,377.4,90.48H353l35.64-88.8h17.87l35.28,88.8h-24.6l-4.31-12.84Zm6.24-18h18.6l-9.13-30.36h-.35Z"/><path d="M451,1.68H479c15.59,0,21.59,1.92,27.35,6.36,7.32,5.76,10.92,15.12,10.92,24.24,0,10.2-5.28,25.2-22.07,28l24.11,30.24H493.43L472.92,61.8h-.24V90.48H451Zm21.72,44.64h8c13.32,0,14.87-8.4,14.87-12.72,0-8-5.88-12-14.63-12h-8.28Z"/><path d="M543,21.6H525.48V1.68h57.59V21.6h-17.4V90.48H543Z"/><path d="M592.2,1.68h49.31V21.6h-27.6V35.4h26.76V55.32H613.91V70.56h27.6V90.48H592.2Z"/><path d="M690.35,27.6c-.47-3-1.19-8.64-8.15-8.64-4,0-7.8,2.76-7.8,7,0,5.28,2.4,6.36,18.35,13.56,16.56,7.44,20.76,15.12,20.76,25.44,0,13-7.44,27.24-31,27.24-25.68,0-32-16.8-32-28.2V61.08h22.56c0,10.32,6.36,12.12,9.24,12.12A8.57,8.57,0,0,0,691,64.68c0-5.88-3.72-7.32-17.4-13.08-6.24-2.52-21.72-8.76-21.72-25.44S668,0,682.92,0c8.75,0,18.23,3.24,24,10.08,5.28,6.48,5.64,12.48,5.88,17.52Z"/></svg>