<svg xmlns="http://www.w3.org/2000/svg" viewBox="0 0 406.25 275.42"><g id="Capa_1" data-name="Capa 1"><path d="M272.13,83.39c0,10.72.14,21.44-.13,32.16a8.27,8.27,0,0,1-2.8,5.69c-20.59,15.25-41.37,30.25-62,45.45-3,2.19-5.1,2.6-8.29.25-21-15.51-42.2-30.79-63.23-46.28a6.43,6.43,0,0,1-2.33-4.47c-.19-21.27-.27-42.55-.08-63.82,0-2.36,1.13-5.65,2.89-6.9C157,30.57,178.08,16,199,1.28c2.64-1.87,4.62-1.59,7.12.17,19.41,13.73,38.69,27.64,58.45,40.84,5.91,3.94,8.19,8,7.69,15C271.65,65.93,272.13,74.68,272.13,83.39ZM145.64,50.54,202.5,91.82l56.86-41.53L202.25,8.39Zm-3.1,10c0,18.57-.07,35.63.13,52.68,0,1.39,1.68,3.09,3,4.07q19,14.09,38.09,27.95c4.28,3.12,8.63,6.13,13.22,9.38a10.11,10.11,0,0,0,.59-1.95c.32-16.76.68-33.51.78-50.26,0-1.42-1.44-3.24-2.72-4.2-6.84-5.11-13.82-10-20.8-15C164.47,75.93,154.06,68.65,142.54,60.56Zm120.33.78a17.76,17.76,0,0,0-2.73.79C243.33,74,226.49,85.91,209.79,98c-1.15.83-1.79,3.08-1.81,4.68-.13,14.91-.11,29.83,0,44.75a58.18,58.18,0,0,0,.87,6.73c1.88-1.26,3.13-2,4.33-2.92,12.5-9,24.54-18.78,37.63-26.82,9.76-6,13.34-13,12.35-24.33C262,87.48,262.87,74.73,262.87,61.34Z"/><path d="M243.77,265.32c-12.68,11.43-24.21,12.54-33.53,3.78-9.15-8.6-10.53-24.31-2.35-33.71a24.25,24.25,0,0,1,11-7.43,24.55,24.55,0,0,1,13.64.44c4,1.33,7.32,4.91,11.26,7.73.11-2-.08-3.81.4-5.46.35-1.21,1.59-2.15,2.43-3.21.8,1.12,2.22,2.21,2.28,3.37.39,6.68.57,13.39.59,20.09,0,6-.08,12.07-.52,18.08-.14,1.81-1.62,3.52-2.48,5.28-.84-1.78-1.77-3.51-2.45-5.35C243.67,268.07,243.85,267,243.77,265.32ZM243,251.23c0-11.09-7.4-19.45-17.39-19.55-8.93-.09-16.75,9.2-16.65,19.76.09,9.94,7.71,18.11,17,18.22C235.75,269.79,243,261.93,243,251.23Z"/><path d="M363,253H326.77c-1.53,7.55.76,11.93,7.64,15.45,6.42,3.29,14,1.8,19.34-3.43,1.9-1.85,4.46-3,7.7-5.17-1,9.56-12.51,16.09-23.45,15-11.79-1.17-20.23-14-18.58-28.33,1.3-11.33,13.82-21.64,24.36-20.06C357.75,228.56,365.05,238.41,363,253Zm-4.77-4.4c-1.86-11.35-9.46-18.13-18.47-16.88-9.31,1.29-14.27,7.48-13.25,16.88Z"/><path d="M91.07,251.06c-.13,13.35-11.19,24.74-23.64,24.35-13-.4-23.3-11.47-23.11-24.87.19-13.16,10.59-24.06,22.86-24A23.83,23.83,0,0,1,91.07,251.06Zm-6.77.41c.36-10.14-5.2-17.61-13.54-19.15-6-1.12-11.33.06-15.33,5-5.2,6.41-6,13.69-3.4,21.27,3.84,11.12,14.63,14.55,24.62,8.4C83,263.12,84.25,257.25,84.3,251.47Z"/><path d="M4.9,251c0,6.31.18,12.47-.12,18.61-.08,1.58-1.67,3.08-2.57,4.62-.73-1.54-2.09-3.07-2.11-4.62C0,251.76,0,233.88,0,215c8.14.4,16.34.13,24.3,1.37s13.09,8.91,12.94,16.89c-.15,7.67-4.64,13.31-12.88,15.08C18.34,249.58,12.14,250,4.9,251Zm.65-5.69c5.94-.59,11.62-.78,17.15-1.81,6.24-1.15,8.4-4.48,8.34-11.17-.06-6.44-2.62-10.16-8.4-11.27A64.88,64.88,0,0,0,9.7,219.76c-1.4,0-3.88,2.27-4,3.61C5.34,230.36,5.55,237.39,5.55,245.34Z"/><path d="M163.33,250.91c0,6.84.14,13.19-.11,19.53-.05,1.31-1.53,2.57-2.35,3.86-.79-1.31-2.27-2.61-2.29-3.93-.15-18.19-.1-36.39-.1-54.55,7.93,0,15.64-.65,23.19.18,8,.87,13.93,8.76,14,16.64.08,8.14-4.59,13.81-13.27,15.78-3.09.69-6.29.91-9.44,1.32C170,250.12,167,250.46,163.33,250.91Zm.44-5.56c6-.57,11.49-.76,16.89-1.69,6.51-1.13,9-4.66,8.92-11.25s-2.91-10.28-8.9-11.43c-3.76-.72-7.63-.87-11.43-1.38-3.57-.48-5.43,1-5.46,4.56C163.73,231,163.77,237.8,163.77,245.35Z"/><path d="M406.14,239.87c-4.54,2.1-6.19-.86-8.07-3.07-4.22-5-8-6.28-13.17-4.34-3.61,1.36-6.56,4.1-5.78,7.79.52,2.51,3.35,5.26,5.85,6.49,4.3,2.13,9.18,3,13.75,4.68s7.47,4.81,7.53,10.1c.07,5.5-2.39,9.14-7.28,11.49-10.23,4.94-22.32,1.07-25.31-8.24a16.65,16.65,0,0,1-.37-3.07c3.11-.63,5.32-1.31,6.82,2.72,2.19,5.9,12.22,7.8,17.36,3.82,4.89-3.78,4.72-8.65-1-11.5-5.21-2.61-10.94-4.13-16.34-6.37-7.56-3.14-9.87-11.13-4.65-17.28,6.34-7.48,21.13-9.53,27.86,1.08A59.71,59.71,0,0,1,406.14,239.87Z"/><path d="M301,233.18c0,10.07.15,19.76-.06,29.44-.1,4.57,2.18,6,6.19,6.72,2.19.38,4.18,1.92,6.26,2.93-2.33.73-4.65,2-7,2.09-8.09.22-10.84-2.55-11.13-11.29s-.17-17.41-.24-26.12c0-1.14-.15-2.29-.23-3.59a8.19,8.19,0,0,1-2.52-.52c-1.4-.82-2.68-1.86-4-2.81a26.26,26.26,0,0,0,3.58-2.74,13.68,13.68,0,0,0,3.07-4.24c.52-1.31-.16-3.07.27-4.45.37-1.22,1.56-2.18,2.38-3.26.88,1,2.37,2,2.52,3.13a62.69,62.69,0,0,1,.12,8.47l14.24,1.12C310.66,234.34,305,231.49,301,233.18Z"/><path d="M103.31,274.34c-.42-1.9-1.18-3.81-1.2-5.72-.11-11.88-.15-23.75,0-35.63,0-1.84,1.43-3.66,2.19-5.49l3.71,4.64a84.55,84.55,0,0,1,9.31-4.78c1-.39,2.77,1.18,4.19,1.86-1,1.23-1.73,3.15-3,3.59-8.83,3-10.19,4.44-10.81,13.85-.47,7.18-.49,14.38-.91,21.56a37.67,37.67,0,0,1-1.42,6.17Z"/><path d="M264.24,274.3c-.41-1.82-1.16-3.64-1.18-5.47-.1-12-.06-24.08,0-36.13,0-1-.15-2.2.34-2.94a12,12,0,0,1,2.8-2.28,11.16,11.16,0,0,1,1.86,2.61,11.92,11.92,0,0,1,.25,3.19l13.7-7.86c1.59,4.71,1,7-3.24,8-7.1,1.55-8.9,3.39-9.55,10.75s-.66,15-1.15,22.55a64,64,0,0,1-1.48,7.79Z"/></g></svg>